<svg width="1498" height="795" viewBox="0 0 1498 795" fill="none" xmlns="http://www.w3.org/2000/svg">
<path d="M736.73 430.292H778.323V560.815H868.435V591.149H736.73V430.292ZM891.833 430.292H933.426V591.149H891.833V430.292ZM1017.63 460.164V502.673H1100.82V532.551H1017.63V591.149H976.039V430.292H1111.85V460.164H1017.63ZM1279.25 561.271V591.144H1140.06V430.292H1275.87V460.164H1181.4V495.091H1264.84V524.043H1181.4V561.266H1279.21L1279.25 561.271Z" fill="white"/>
<path d="M794.365 655.982H736.857V625.653H893.465V655.982H835.951V786.504H794.365V655.982ZM1000.27 789.269C982.708 789.506 965.362 785.792 949.819 778.465C935.263 771.625 923.1 761.325 914.649 748.706C906.324 735.737 901.942 721.041 901.942 706.079C901.942 691.122 906.324 676.421 914.649 663.451C923.1 650.832 935.269 640.533 949.819 633.692C965.428 626.597 982.689 622.9 1000.19 622.9C1017.7 622.9 1034.96 626.597 1050.57 633.692C1065.22 640.693 1077.47 651.123 1086.02 663.873C1094.56 676.622 1099.07 691.205 1099.07 706.073C1099.07 720.941 1094.56 735.523 1086.02 748.273C1077.47 761.023 1065.22 771.453 1050.57 778.453C1035.07 785.786 1017.77 789.5 1000.24 789.251L1000.27 789.269ZM1000.27 757.558C1010.33 757.694 1020.25 755.44 1029.03 751.032C1037.5 746.736 1044.48 740.412 1049.18 732.765C1053.98 724.536 1056.49 715.393 1056.49 706.108C1056.49 696.824 1053.98 687.681 1049.18 679.452C1044.48 671.805 1037.51 665.48 1029.03 661.185C1020.2 656.89 1010.32 654.635 1000.27 654.635C990.225 654.635 980.335 656.89 971.513 661.185C963.029 665.48 956.056 671.805 951.363 679.452C946.558 687.681 944.052 696.824 944.052 706.108C944.052 715.393 946.558 724.536 951.363 732.765C956.056 740.412 963.036 746.736 971.513 751.032C980.276 755.434 990.192 757.689 1000.24 757.558H1000.27ZM1209.77 789.269C1184.1 789.269 1164.11 782.909 1149.81 770.195C1135.52 757.481 1128.37 739.326 1128.38 715.731V625.653H1169.97V714.355C1169.97 743.159 1183.32 757.558 1210.02 757.558C1215.53 757.884 1221.07 757.119 1226.22 755.315C1231.36 753.506 1236 750.706 1239.8 747.104C1246.65 740.133 1250.07 729.223 1250.07 714.361V625.659H1291.16V715.737C1291.16 739.332 1284.02 757.487 1269.73 770.201C1255.44 782.915 1235.44 789.263 1209.73 789.251L1209.77 789.269ZM1446.74 786.51L1412.08 741.7H1373.83V786.51H1332.23V625.653H1410.02C1424.25 625.357 1438.39 627.783 1451.48 632.773C1462.7 636.949 1472.22 644.098 1478.76 653.259C1485.3 662.419 1488.55 673.157 1488.06 684.02C1488.54 694.872 1485.24 705.586 1478.62 714.681C1472 723.782 1462.38 730.813 1451.1 734.806L1491.41 786.51H1446.74ZM1445.96 684.02C1446.23 680.117 1445.48 676.213 1443.79 672.606C1442.1 668.999 1439.51 665.789 1436.2 663.226C1427.94 657.916 1417.86 655.353 1407.7 655.988H1373.81V712.059H1407.7C1417.88 712.694 1427.97 710.095 1436.2 704.708C1439.48 702.151 1442.06 698.959 1443.74 695.37C1445.42 691.787 1446.17 687.906 1445.93 684.02H1445.96Z" fill="white"/>
<path d="M794.449 266.984H736.936V236.649H893.543V266.984H836.029V397.506H794.449V266.984ZM1030.42 397.506L995.758 352.695H957.506V397.506H915.913V236.649H993.703C1007.93 236.35 1022.07 238.778 1035.16 243.768C1046.2 248.004 1055.62 255.034 1062.25 263.993C1068.76 273.274 1072.06 284.064 1071.75 295.016C1072.23 305.866 1068.93 316.58 1062.31 325.678C1055.68 334.775 1046.07 341.807 1034.79 345.801L1075.09 397.506H1030.42ZM1029.64 295.016C1029.91 291.112 1029.16 287.205 1027.47 283.598C1025.78 279.991 1023.19 276.781 1019.89 274.216C1011.62 268.905 1001.54 266.346 991.383 266.978H957.493V323.049H991.383C1001.56 323.685 1011.65 321.08 1019.89 315.692C1023.16 313.136 1025.73 309.945 1027.41 306.363C1029.1 302.78 1029.84 298.902 1029.6 295.022L1029.64 295.016ZM1104.61 236.643H1146.2V397.506H1104.61V236.643ZM1266.6 236.643C1280.84 236.344 1294.97 238.772 1308.06 243.762C1319.1 247.998 1328.52 255.028 1335.15 263.987C1341.37 273.357 1344.65 284.054 1344.65 294.951C1344.65 305.848 1341.37 316.544 1335.15 325.914C1328.57 334.915 1319.14 341.956 1308.06 346.139C1294.95 351.056 1280.82 353.443 1266.6 353.146H1230.41V397.5H1188.81V236.649L1266.6 236.643ZM1264.3 322.817C1274.45 323.45 1284.53 320.89 1292.8 315.579C1296.08 313.053 1298.67 309.882 1300.36 306.315C1302.05 302.748 1302.81 298.879 1302.56 295.01C1302.82 291.105 1302.08 287.198 1300.39 283.592C1298.7 279.985 1296.1 276.775 1292.8 274.21C1284.53 268.9 1274.45 266.34 1264.3 266.972H1230.41V322.812L1264.3 322.817Z" fill="white"/>
<path fill-rule="evenodd" clip-rule="evenodd" d="M554.273 142.329C554.01 142.089 553.812 141.797 553.695 141.477C553.579 141.158 553.545 140.818 553.598 140.485C553.651 140.151 553.79 139.834 554.002 139.556C554.214 139.278 554.495 139.048 554.823 138.882L649.15 91.4196C649.498 91.2434 649.792 90.9942 650.008 90.694C650.224 90.3932 650.355 90.0503 650.39 89.6943C650.426 89.3384 650.364 88.98 650.21 88.6502C650.056 88.3203 649.816 88.029 649.508 87.8006L637.173 78.7708C634.604 76.8925 631.559 75.608 628.305 75.0319C625.051 74.4558 621.689 74.6048 618.514 75.4662L511.971 104.418C511.184 104.629 510.352 104.662 509.548 104.513C508.744 104.366 507.994 104.042 507.364 103.57L471.803 77.5308C461.648 69.9012 428.6 56.7304 419.148 66.7983L418.027 68.0205L416.907 69.2427C407.76 79.5302 428.745 105.908 439.106 113.312L474.666 139.351C475.309 139.81 475.814 140.403 476.137 141.08C476.459 141.756 476.589 142.493 476.516 143.225L465.95 242.422C465.63 245.377 466.128 248.356 467.4 251.097C468.671 253.838 470.678 256.256 473.241 258.138L485.57 267.168C485.88 267.395 486.246 267.551 486.638 267.622C487.03 267.694 487.435 267.678 487.819 267.577C488.203 267.475 488.553 267.292 488.839 267.042C489.125 266.792 489.339 266.483 489.461 266.142L522.728 173.987C522.842 173.665 523.037 173.371 523.298 173.127C523.558 172.884 523.878 172.697 524.233 172.583C524.588 172.468 524.967 172.428 525.342 172.466C525.717 172.503 526.077 172.618 526.394 172.8C601.214 216.033 648.302 236.371 614.133 328.775C614.08 328.923 692.765 240.737 554.233 142.341L554.273 142.329Z" fill="white"/>
<path fill-rule="evenodd" clip-rule="evenodd" d="M416.815 562.345L268.447 585.074L217.024 593.065V452.564L268.447 444.572V539.047L416.815 516.3C456.567 506.769 494.203 491.223 528.098 470.333C640.083 402.242 691.996 295.818 644.027 232.646C639.273 226.393 633.651 220.706 627.297 215.719C627.622 216.134 627.96 216.544 628.272 216.965C667.28 268.343 625.057 354.904 533.984 410.298C499.021 432.142 458.945 446.549 416.815 452.422V246.908C416.769 232.83 410.502 219.341 399.38 209.386C388.258 199.431 373.187 193.82 357.459 193.78H299.421V25.1269C299.402 18.9793 296.666 13.0884 291.809 8.74077C286.953 4.39322 280.373 1.94237 273.504 1.92358H143.318C136.448 1.9408 129.865 4.39096 125.008 8.7387C120.151 13.0865 117.413 18.9783 117.394 25.1269V193.78H59.3566C43.6283 193.82 28.5571 199.431 17.4354 209.386C6.31369 219.341 0.0454681 232.83 0 246.908V402.39L361.316 346.236V367.345C360.282 385.143 340.305 394.25 319.763 398.723L165.609 422.656V601.062L114.186 609.053V430.642L34.7059 443C10.6053 448.215 1.23287 461.546 0 479.357V706.15C0.0454681 720.229 6.31369 733.72 17.4354 743.675C28.5571 753.63 43.6283 759.237 59.3566 759.278H93.6581V770.041H94.089C93.8026 771.31 93.6588 772.598 93.6581 773.891C93.6581 778.981 95.9157 783.858 99.9345 787.453C103.953 791.055 109.404 793.072 115.088 793.072C120.771 793.072 126.222 791.055 130.24 787.453C134.259 783.858 136.517 778.981 136.517 773.891C136.516 772.598 136.372 771.31 136.086 770.041H136.543V759.278H280.63V770.041H281.041C280.754 771.31 280.611 772.598 280.61 773.891C280.61 778.981 282.867 783.858 286.886 787.453C290.905 791.055 296.356 793.072 302.039 793.072C307.722 793.072 313.173 791.055 317.192 787.453C321.211 783.858 323.469 778.981 323.469 773.891C323.468 772.598 323.324 771.31 323.038 770.041H323.462V759.278H357.432C373.16 759.237 388.232 753.63 399.354 743.675C410.475 733.72 416.743 720.229 416.789 706.15L416.815 562.345ZM271.721 193.78H145.094V61.1569C145.11 56.8815 147.014 52.785 150.392 49.7618C153.77 46.7385 158.346 45.0338 163.123 45.0197H253.692C258.47 45.0322 263.049 46.7362 266.428 49.7597C269.807 52.7831 271.712 56.8805 271.728 61.1569L271.721 193.78Z" fill="white"/>
</svg>
