<svg width="226" height="134" viewBox="0 0 226 134" fill="none" xmlns="http://www.w3.org/2000/svg">
<g clip-path="url(#clip0_485_7921)">
<path d="M111.149 72.5273H117.424V94.5273H131.019V99.6403H111.149V72.5273ZM134.549 72.5273H140.824V99.6403H134.549V72.5273ZM153.528 77.5623V84.7273H166.078V89.7633H153.528V99.6403H147.253V72.5273H167.743V77.5623H153.528ZM192.997 94.6042V99.6393H171.999V72.5273H192.488V77.5623H178.235V83.4493H190.823V88.3293H178.235V94.6033H192.992L192.997 94.6042Z" fill="#112211"/>
<path d="M119.844 110.568H111.168V105.456H134.795V110.568H126.118V132.568H119.844V110.568ZM150.908 133.034C148.259 133.074 145.642 132.448 143.297 131.213C141.101 130.06 139.266 128.324 137.991 126.197C136.735 124.011 136.074 121.534 136.074 119.012C136.074 116.491 136.735 114.013 137.991 111.827C139.266 109.7 141.102 107.964 143.297 106.811C145.652 105.615 148.256 104.992 150.897 104.992C153.538 104.992 156.142 105.615 158.497 106.811C160.708 107.991 162.556 109.749 163.845 111.898C165.134 114.047 165.814 116.505 165.814 119.011C165.814 121.517 165.134 123.975 163.845 126.124C162.556 128.273 160.708 130.031 158.497 131.211C156.159 132.447 153.548 133.073 150.904 133.031L150.908 133.034ZM150.908 127.689C152.426 127.712 153.923 127.332 155.247 126.589C156.526 125.865 157.579 124.799 158.287 123.51C159.012 122.123 159.39 120.582 159.39 119.017C159.39 117.452 159.012 115.911 158.287 114.524C157.579 113.235 156.527 112.169 155.247 111.445C153.916 110.721 152.424 110.341 150.909 110.341C149.393 110.341 147.901 110.721 146.57 111.445C145.29 112.169 144.238 113.235 143.53 114.524C142.805 115.911 142.427 117.452 142.427 119.017C142.427 120.582 142.805 122.123 143.53 123.51C144.238 124.799 145.291 125.865 146.57 126.589C147.892 127.331 149.388 127.711 150.904 127.689H150.908ZM182.515 133.034C178.642 133.034 175.627 131.962 173.47 129.819C171.313 127.676 170.235 124.616 170.236 120.639V105.456H176.511V120.407C176.511 125.262 178.525 127.689 182.553 127.689C183.385 127.744 184.22 127.615 184.997 127.311C185.773 127.006 186.473 126.534 187.046 125.927C188.079 124.752 188.595 122.913 188.595 120.408V105.457H194.795V120.64C194.795 124.617 193.717 127.677 191.561 129.82C189.405 131.963 186.388 133.033 182.51 133.031L182.515 133.034ZM218.266 132.569L213.037 125.016H207.266V132.569H200.991V105.456H212.727C214.874 105.406 217.006 105.815 218.982 106.656C220.674 107.36 222.11 108.565 223.097 110.109C224.084 111.653 224.574 113.463 224.501 115.294C224.573 117.123 224.075 118.929 223.076 120.462C222.077 121.996 220.626 123.181 218.924 123.854L225.005 132.569H218.266ZM218.149 115.294C218.189 114.636 218.077 113.978 217.822 113.37C217.567 112.762 217.175 112.221 216.677 111.789C215.43 110.894 213.909 110.462 212.377 110.569H207.264V120.02H212.377C213.912 120.127 215.435 119.689 216.677 118.781C217.171 118.35 217.56 117.812 217.814 117.207C218.068 116.603 218.181 115.949 218.144 115.294H218.149Z" fill="#112211"/>
<path d="M119.857 45.001H111.18V39.888H134.807V45.001H126.13V67.001H119.857V45.001ZM155.457 67.001L150.228 59.448H144.457V67.001H138.182V39.888H149.918C152.065 39.8376 154.197 40.2468 156.173 41.088C157.838 41.8019 159.259 42.9868 160.26 44.497C161.241 46.0613 161.74 47.88 161.693 49.726C161.765 51.5548 161.267 53.3607 160.268 54.8941C159.269 56.4275 157.818 57.6128 156.116 58.286L162.197 67.001H155.457ZM155.34 49.726C155.38 49.0679 155.268 48.4094 155.013 47.8014C154.757 47.1935 154.366 46.6524 153.868 46.22C152.621 45.3249 151.1 44.8935 149.568 45H144.455V54.451H149.568C151.103 54.5583 152.626 54.1191 153.868 53.211C154.362 52.7802 154.75 52.2423 155.004 51.6385C155.258 51.0347 155.37 50.3809 155.333 49.727L155.34 49.726ZM166.65 39.887H172.925V67.001H166.65V39.887ZM191.09 39.887C193.237 39.8366 195.369 40.2458 197.345 41.087C199.01 41.8009 200.431 42.9858 201.432 44.496C202.37 46.0753 202.865 47.8782 202.865 49.715C202.865 51.5517 202.37 53.3546 201.432 54.934C200.439 56.4511 199.016 57.6379 197.345 58.343C195.366 59.1717 193.235 59.5741 191.09 59.524H185.629V67H179.354V39.888L191.09 39.887ZM190.742 54.412C192.274 54.5187 193.795 54.0872 195.042 53.192C195.537 52.7661 195.928 52.2317 196.183 51.6304C196.438 51.0292 196.552 50.3771 196.514 49.725C196.554 49.0668 196.442 48.4083 196.187 47.8004C195.932 47.1925 195.54 46.6514 195.042 46.219C193.795 45.324 192.274 44.8925 190.742 44.999H185.629V54.411L190.742 54.412Z" fill="#112211"/>
<path fill-rule="evenodd" clip-rule="evenodd" d="M83.6215 23.9901C83.5819 23.9496 83.552 23.9004 83.5344 23.8465C83.5168 23.7926 83.5118 23.7353 83.5198 23.6792C83.5278 23.623 83.5487 23.5695 83.5807 23.5226C83.6127 23.4758 83.6551 23.437 83.7045 23.4091L97.9355 15.4091C97.9879 15.3794 98.0323 15.3374 98.0649 15.2868C98.0975 15.2361 98.1173 15.1783 98.1226 15.1183C98.1279 15.0583 98.1186 14.9979 98.0954 14.9423C98.0722 14.8867 98.0359 14.8376 97.9895 14.7991L96.1285 13.2771C95.741 12.9605 95.2815 12.744 94.7906 12.6469C94.2997 12.5498 93.7924 12.5749 93.3135 12.7201L77.2395 17.6001C77.1209 17.6356 76.9953 17.6411 76.874 17.6161C76.7527 17.5912 76.6395 17.5366 76.5445 17.4571L71.1795 13.0681C69.6475 11.7821 64.6615 9.56214 63.2355 11.2591L63.0665 11.4651L62.8975 11.6711C61.5175 13.4051 64.6835 17.8511 66.2465 19.0991L71.6115 23.4881C71.7084 23.5654 71.7846 23.6655 71.8333 23.7795C71.882 23.8934 71.9016 24.0177 71.8905 24.1411L70.2965 40.8611C70.2482 41.3591 70.3233 41.8612 70.5152 42.3232C70.707 42.7852 71.0097 43.1929 71.3965 43.5101L73.2565 45.0321C73.3032 45.0704 73.3585 45.0967 73.4176 45.1087C73.4767 45.1207 73.5379 45.118 73.5958 45.101C73.6537 45.0839 73.7065 45.053 73.7497 45.0108C73.7929 44.9687 73.8251 44.9166 73.8435 44.8591L78.8625 29.3261C78.8796 29.2719 78.909 29.2223 78.9484 29.1812C78.9877 29.1402 79.036 29.1087 79.0895 29.0894C79.143 29.0701 79.2003 29.0633 79.2568 29.0697C79.3134 29.076 79.3677 29.0954 79.4155 29.1261C90.7035 36.4131 97.8075 39.8411 92.6525 55.4161C92.6445 55.4411 104.516 40.5771 83.6155 23.9921L83.6215 23.9901Z" fill="#112211"/>
<path fill-rule="evenodd" clip-rule="evenodd" d="M62.884 94.7852L40.5 98.6162L32.742 99.9632V76.2812L40.5 74.9342V90.8582L62.884 87.0242C68.8812 85.4177 74.5594 82.7973 79.673 79.2762C96.568 67.7992 104.4 49.8612 97.163 39.2132C96.4457 38.1593 95.5976 37.2007 94.639 36.3602C94.688 36.4302 94.739 36.4992 94.786 36.5702C100.671 45.2302 94.301 59.8202 80.561 69.1572C75.2862 72.839 69.2401 75.2674 62.884 76.2572V41.6172C62.8771 39.2443 61.9315 36.9706 60.2536 35.2927C58.5757 33.6148 56.3019 32.6691 53.929 32.6622H45.173V4.23522C45.1701 3.19902 44.7573 2.20608 44.0246 1.47328C43.292 0.740484 42.2992 0.327385 41.263 0.324219H21.622C20.5856 0.327121 19.5925 0.740104 18.8597 1.47293C18.1269 2.20576 17.7139 3.19885 17.711 4.23522V32.6622H8.955C6.5821 32.6691 4.30834 33.6148 2.63044 35.2927C0.952533 36.9706 0.00685967 39.2443 0 41.6172V67.8242L54.511 58.3592V61.9172C54.355 64.9172 51.341 66.4522 48.242 67.2062L24.985 71.2402V101.311L17.227 102.658V72.5862L5.236 74.6692C1.6 75.5482 0.186 77.7952 0 80.7972V119.024C0.00685967 121.397 0.952533 123.671 2.63044 125.349C4.30834 127.027 6.5821 127.972 8.955 127.979H14.13V129.793H14.195C14.1518 130.007 14.1301 130.224 14.13 130.442C14.13 131.3 14.4706 132.122 15.0769 132.728C15.6832 133.335 16.5056 133.675 17.363 133.675C18.2204 133.675 19.0428 133.335 19.6491 132.728C20.2554 132.122 20.596 131.3 20.596 130.442C20.5959 130.224 20.5742 130.007 20.531 129.793H20.6V127.979H42.338V129.793H42.4C42.3568 130.007 42.3351 130.224 42.335 130.442C42.335 131.3 42.6756 132.122 43.2819 132.728C43.8882 133.335 44.7106 133.675 45.568 133.675C46.4254 133.675 47.2478 133.335 47.8541 132.728C48.4604 132.122 48.801 131.3 48.801 130.442C48.8009 130.224 48.7792 130.007 48.736 129.793H48.8V127.979H53.925C56.2979 127.972 58.5717 127.027 60.2496 125.349C61.9275 123.671 62.8731 121.397 62.88 119.024L62.884 94.7852ZM40.994 32.6622H21.89V10.3082C21.8924 9.58756 22.1797 8.89709 22.6893 8.38751C23.1989 7.87792 23.8893 7.59059 24.61 7.58822H38.274C38.9948 7.59033 39.6856 7.87754 40.1954 8.38716C40.7052 8.89677 40.9926 9.58739 40.995 10.3082L40.994 32.6622Z" fill="#112211"/>
</g>
<defs>
<clipPath id="clip0_485_7921">
<rect width="226" height="134" fill="white"/>
</clipPath>
</defs>
</svg>
